HIERARCHY
ROOT Root
{
  OFFSET 0.0 0.0 0.0
  CHANNELS 6 Xposition Yposition Zposition Zrotation Yrotation Xrotation
  JOINT Hips
  {
    OFFSET 0.0 100.0 0.0
    CHANNELS 6 Xposition Yposition Zposition Zrotation Yrotation Xrotation
    JOINT Spine1
    {
      OFFSET -0.013727 5.003763 -0.053727
      CHANNELS 3 Zrotation Yrotation Xrotation
      JOINT Spine2
      {
        OFFSET -0.0 7.125301 -0.029825
        CHANNELS 3 Zrotation Yrotation Xrotation
        JOINT Chest
        {
          OFFSET -1e-06 7.550063 -0.815971
          CHANNELS 3 Zrotation Yrotation Xrotation
          JOINT Neck1
          {
            OFFSET -0.181677 26.311295 -0.553348
            CHANNELS 3 Zrotation Yrotation Xrotation
            JOINT Neck2
            {
              OFFSET -3e-06 7.709397 2.302585
              CHANNELS 3 Zrotation Yrotation Xrotation
              JOINT Head
              {
                OFFSET -5e-06 6.128916 1.953709
                CHANNELS 3 Zrotation Yrotation Xrotation
                JOINT HeadEnd
                {
                  OFFSET 0.003598 16.065403 -1.835379
                  CHANNELS 3 Zrotation Yrotation Xrotation
                }
                JOINT Jaw
                {
                  OFFSET 0.002637 0.475592 3.094941
                  CHANNELS 3 Zrotation Yrotation Xrotation
                }
                JOINT LeftEye
                {
                  OFFSET 3.206381 5.380205 7.586883
                  CHANNELS 3 Zrotation Yrotation Xrotation
                }
                JOINT RightEye
                {
                  OFFSET -3.22244 5.361869 7.558234
                  CHANNELS 3 Zrotation Yrotation Xrotation
                }
              }
            }
          }
          JOINT LeftShoulder
          {
            OFFSET 1.621652 23.237164 5.113413
            CHANNELS 3 Zrotation Yrotation Xrotation
            JOINT LeftArm
            {
              OFFSET 14.919846 2e-06 -5.502326
              CHANNELS 3 Zrotation Yrotation Xrotation
              JOINT LeftForeArm
              {
                OFFSET 28.739307 0.0 -0.002588
                CHANNELS 3 Zrotation Yrotation Xrotation
                JOINT LeftHand
                {
                  OFFSET 27.093981 -1e-06 0.002609
                  CHANNELS 3 Zrotation Yrotation Xrotation
                  JOINT LeftHandThumb1
                  {
                    OFFSET 2.276482 -1.392045 3.191413
                    CHANNELS 3 Zrotation Yrotation Xrotation
                    JOINT LeftHandThumb2
                    {
                      OFFSET 4.012836 -1.828127 1.641654
                      CHANNELS 3 Zrotation Yrotation Xrotation
                      JOINT LeftHandThumb3
                      {
                        OFFSET 2.798515 0.0 -3e-06
                        CHANNELS 3 Zrotation Yrotation Xrotation
                        JOINT LeftHandThumbEnd
                        {
                          OFFSET 3.180793 -4e-06 4e-06
                          CHANNELS 3 Zrotation Yrotation Xrotation
                        }
                      }
                    }
                  }
                  JOINT LeftHandIndex1
                  {
                    OFFSET 3.247555 -0.531998 2.296169
                    CHANNELS 3 Zrotation Yrotation Xrotation
                    JOINT LeftHandIndex2
                    {
                      OFFSET 6.364578 0.01206 0.1786
                      CHANNELS 3 Zrotation Yrotation Xrotation
                      JOINT LeftHandIndex3
                      {
                        OFFSET 3.662364 0.0 0.0
                        CHANNELS 3 Zrotation Yrotation Xrotation
                        JOINT LeftHandIndex4
                        {
                          OFFSET 2.329242 4e-06 4e-06
                          CHANNELS 3 Zrotation Yrotation Xrotation
                          JOINT LeftHandIndexEnd
                          {
                            OFFSET 2.759615 -0.180537 -0.113024
                            CHANNELS 3 Zrotation Yrotation Xrotation
                          }
                        }
                      }
                    }
                  }
                  JOINT LeftHandMiddle1
                  {
                    OFFSET 3.163495 0.240981 1.000332
                    CHANNELS 3 Zrotation Yrotation Xrotation
                    JOINT LeftHandMiddle2
                    {
                      OFFSET 6.19078 -0.259278 -1.002548
                      CHANNELS 3 Zrotation Yrotation Xrotation
                      JOINT LeftHandMiddle3
                      {
                        OFFSET 4.35652 -4e-06 -1e-06
                        CHANNELS 3 Zrotation Yrotation Xrotation
                        JOINT LeftHandMiddle4
                        {
                          OFFSET 2.996877 -8e-06 0.0
                          CHANNELS 3 Zrotation Yrotation Xrotation
                          JOINT LeftHandMiddleEnd
                          {
                            OFFSET 2.304287 -0.294569 -0.031741
                            CHANNELS 3 Zrotation Yrotation Xrotation
                          }
                        }
                      }
                    }
                  }
                  JOINT LeftHandRing1
                  {
                    OFFSET 2.882643 -0.053652 -0.322543
                    CHANNELS 3 Zrotation Yrotation Xrotation
                    JOINT LeftHandRing2
                    {
                      OFFSET 5.854541 -0.486202 -1.373841
                      CHANNELS 3 Zrotation Yrotation Xrotation
                      JOINT LeftHandRing3
                      {
                        OFFSET 4.350578 0.0 3e-06
                        CHANNELS 3 Zrotation Yrotation Xrotation
                        JOINT LeftHandRing4
                        {
                          OFFSET 2.651321 7e-06 2e-06
                          CHANNELS 3 Zrotation Yrotation Xrotation
                          JOINT LeftHandRingEnd
                          {
                            OFFSET 1.936105 0.077687 -7.1e-05
                            CHANNELS 3 Zrotation Yrotation Xrotation
                          }
                        }
                      }
                    }
                  }
                  JOINT LeftHandPinky1
                  {
                    OFFSET 2.8655 -0.310005 -1.600378
                    CHANNELS 3 Zrotation Yrotation Xrotation
                    JOINT LeftHandPinky2
                    {
                      OFFSET 5.087849 -1.331141 -1.77123
                      CHANNELS 3 Zrotation Yrotation Xrotation
                      JOINT LeftHandPinky3
                      {
                        OFFSET 3.070974 4e-06 0.0
                        CHANNELS 3 Zrotation Yrotation Xrotation
                        JOINT LeftHandPinky4
                        {
                          OFFSET 1.549672 0.0 1e-06
                          CHANNELS 3 Zrotation Yrotation Xrotation
                          JOINT LeftHandPinkyEnd
                          {
                            OFFSET 1.944893 -0.157802 0.057219
                            CHANNELS 3 Zrotation Yrotation Xrotation
                          }
                        }
                      }
                    }
                  }
                }
              }
            }
          }
          JOINT RightShoulder
          {
            OFFSET -1.380118 23.180309 5.214158
            CHANNELS 3 Zrotation Yrotation Xrotation
            JOINT RightArm
            {
              OFFSET -15.037196 1.2e-05 -5.545604
              CHANNELS 3 Zrotation Yrotation Xrotation
              JOINT RightForeArm
              {
                OFFSET -28.736639 2e-06 -0.002597
                CHANNELS 3 Zrotation Yrotation Xrotation
                JOINT RightHand
                {
                  OFFSET -27.133619 -0.0 0.002613
                  CHANNELS 3 Zrotation Yrotation Xrotation
                  JOINT RightHandThumb1
                  {
                    OFFSET -2.274032 -1.383988 3.163127
                    CHANNELS 3 Zrotation Yrotation Xrotation
                    JOINT RightHandThumb2
                    {
                      OFFSET -4.011429 -1.827466 1.640914
                      CHANNELS 3 Zrotation Yrotation Xrotation
                      JOINT RightHandThumb3
                      {
                        OFFSET -2.794935 -4e-06 -3e-06
                        CHANNELS 3 Zrotation Yrotation Xrotation
                        JOINT RightHandThumbEnd
                        {
                          OFFSET -3.183852 4e-06 1e-06
                          CHANNELS 3 Zrotation Yrotation Xrotation
                        }
                      }
                    }
                  }
                  JOINT RightHandIndex1
                  {
                    OFFSET -3.253266 -0.520057 2.282866
                    CHANNELS 3 Zrotation Yrotation Xrotation
                    JOINT RightHandIndex2
                    {
                      OFFSET -6.341917 0.012471 0.178266
                      CHANNELS 3 Zrotation Yrotation Xrotation
                      JOINT RightHandIndex3
                      {
                        OFFSET -3.654871 -8e-06 -0.0
                        CHANNELS 3 Zrotation Yrotation Xrotation
                        JOINT RightHandIndex4
                        {
                          OFFSET -2.327586 0.0 1e-06
                          CHANNELS 3 Zrotation Yrotation Xrotation
                          JOINT RightHandIndexEnd
                          {
                            OFFSET -2.76179 -0.180656 -0.113078
                            CHANNELS 3 Zrotation Yrotation Xrotation
                          }
                        }
                      }
                    }
                  }
                  JOINT RightHandMiddle1
                  {
                    OFFSET -3.168106 0.246593 1.00103
                    CHANNELS 3 Zrotation Yrotation Xrotation
                    JOINT RightHandMiddle2
                    {
                      OFFSET -6.180828 -0.258836 -1.000895
                      CHANNELS 3 Zrotation Yrotation Xrotation
                      JOINT RightHandMiddle3
                      {
                        OFFSET -4.348901 0.0 -0.0
                        CHANNELS 3 Zrotation Yrotation Xrotation
                        JOINT RightHandMiddle4
                        {
                          OFFSET -3.00024 -4e-06 -2e-06
                          CHANNELS 3 Zrotation Yrotation Xrotation
                          JOINT RightHandMiddleEnd
                          {
                            OFFSET -2.30252 -0.29437 -0.031706
                            CHANNELS 3 Zrotation Yrotation Xrotation
                          }
                        }
                      }
                    }
                  }
                  JOINT RightHandRing1
                  {
                    OFFSET -2.88569 -0.067952 -0.308858
                    CHANNELS 3 Zrotation Yrotation Xrotation
                    JOINT RightHandRing2
                    {
                      OFFSET -5.854198 -0.48613 -1.373731
                      CHANNELS 3 Zrotation Yrotation Xrotation
                      JOINT RightHandRing3
                      {
                        OFFSET -4.33881 -4e-06 -0.0
                        CHANNELS 3 Zrotation Yrotation Xrotation
                        JOINT RightHandRing4
                        {
                          OFFSET -2.654903 -4e-06 4e-06
                          CHANNELS 3 Zrotation Yrotation Xrotation
                          JOINT RightHandRingEnd
                          {
                            OFFSET -1.933568 0.077527 -5.2e-05
                            CHANNELS 3 Zrotation Yrotation Xrotation
                          }
                        }
                      }
                    }
                  }
                  JOINT RightHandPinky1
                  {
                    OFFSET -2.866425 -0.342796 -1.584145
                    CHANNELS 3 Zrotation Yrotation Xrotation
                    JOINT RightHandPinky2
                    {
                      OFFSET -5.091371 -1.332055 -1.772385
                      CHANNELS 3 Zrotation Yrotation Xrotation
                      JOINT RightHandPinky3
                      {
                        OFFSET -3.062664 -4e-06 1e-06
                        CHANNELS 3 Zrotation Yrotation Xrotation
                        JOINT RightHandPinky4
                        {
                          OFFSET -1.546529 4e-06 -2e-06
                          CHANNELS 3 Zrotation Yrotation Xrotation
                          JOINT RightHandPinkyEnd
                          {
                            OFFSET -1.945119 -0.157718 0.057211
                            CHANNELS 3 Zrotation Yrotation Xrotation
                          }
                        }
                      }
                    }
                  }
                }
              }
            }
          }
        }
      }
    }
    JOINT LeftLeg
    {
      OFFSET 10.043214 -8.434526 2.595655
      CHANNELS 3 Zrotation Yrotation Xrotation
      JOINT LeftShin
      {
        OFFSET -1e-06 -43.221752 -0.802913
        CHANNELS 3 Zrotation Yrotation Xrotation
        JOINT LeftFoot
        {
          OFFSET 1e-06 -42.155094 -3.481523
          CHANNELS 3 Zrotation Yrotation Xrotation
          JOINT LeftToeBase
          {
            OFFSET 0.0 -5.059472 13.231529
            CHANNELS 3 Zrotation Yrotation Xrotation
            JOINT LeftToeEnd
            {
              OFFSET -0.009607 -1.647619 6.513017
              CHANNELS 3 Zrotation Yrotation Xrotation
            }
          }
        }
      }
    }
    JOINT RightLeg
    {
      OFFSET -10.047278 -8.29526 2.620317
      CHANNELS 3 Zrotation Yrotation Xrotation
      JOINT RightShin
      {
        OFFSET 1e-06 -43.362206 -0.805556
        CHANNELS 3 Zrotation Yrotation Xrotation
        JOINT RightFoot
        {
          OFFSET 2e-06 -42.117393 -3.478398
          CHANNELS 3 Zrotation Yrotation Xrotation
          JOINT RightToeBase
          {
            OFFSET -0.0 -5.079609 13.284196
            CHANNELS 3 Zrotation Yrotation Xrotation
            JOINT RightToeEnd
            {
              OFFSET 0.009532 -1.634378 6.460591
              CHANNELS 3 Zrotation Yrotation Xrotation
            }
          }
        }
      }
    }
  }
}
MOTION
Frames: 4
Frame Time: 0.03333333333333333
0.0 0.0 0.0 0.0 -0.0 0.0 2.105771 100.232338 -3.875999 0.752622 0.42053 0.044817 -0.460045 -0.010424 -3.346479 -0.688362 0.666798 -6.019562 -0.655014 -1.413656 13.029672 4.31471 1.07556 5.013098 -1.081563 -0.824924 -3.659205 1.488151 -1.965172 -9.141519 7.7e-05 -2.2e-05 6e-06 0.006358 -0.098284 0.030021 0.71988 -3.830365 -10.544989 -0.704703 3.641093 -10.538338 -19.304008 -6.209995 12.625407 -54.696316 -7.481219 19.011784 0.893665 -28.668959 -0.169382 -7.921834 -3.142409 7.41602 -5.882111 9.861293 0.70259 -10.93688 -0.360577 7.156209 1e-06 8.774832 -1e-06 -15.984631 18.479889 6.133518 -1.844034 2.498507 -2.507279 -10.163608 4.678948 4.621109 -20.97604 -5e-06 -0.0 -21.226305 2.451696 -3.594004 1e-06 -5e-06 0.0 -1.362684 2.240801 -0.746323 -21.334934 0.584908 3.008324 -13.821226 -2e-06 0.0 -23.887192 -0.249081 -0.839486 -60.275074 2.71996 -1.415046 -0.294025 1.679688 0.833255 -14.218222 0.093213 1.300581 -34.212082 -0.287569 0.967169 -20.033232 0.964536 1.212846 1e-06 1e-06 0.0 -3.440392 0.788235 0.501655 -15.928201 -3.167313 2.999706 -6.338832 -2e-06 0.0 -18.123465 3.648185 -4.905675 -4e-06 0.0 -1e-06 27.824694 12.566184 18.996901 47.142357 9.382371 18.760254 0.122002 22.292315 0.060639 10.182553 5.136109 -6.87839 2.243545 -5.255042 -3.180157 14.282898 -0.826598 6.952504 1e-06 -12.690611 1e-06 16.410091 -17.974924 2.231445 1.665668 -1.955923 -2.878299 4.727802 -4.170592 4.993925 11.020531 -1e-06 -2e-06 12.109058 -3.73572 -2.866788 1e-06 -0.0 0.0 1.291987 -1.92855 -1.498089 14.800138 0.567464 3.865608 14.242583 -1.341741 -6.660663 19.631985 0.143923 -0.64825 49.473286 -0.410483 -6.709564 0.353029 -1.511151 -0.031941 20.222803 3.684306 2.316629 18.787287 2e-06 -4e-06 10.751633 -0.479873 1.397906 -0.0 1e-06 -1e-06 3.273809 0.305946 -0.580112 21.486818 11.830377 2.266133 8.16293 0.0 -1e-06 18.399094 -3.798991 -4.940582 4e-06 1e-06 -2e-06 3.715302 7.08116 -1.553221 0.04772 0.062427 4.509948 -4.646121 -0.698836 -2.777134 1.614128 -2.072698 -0.204668 0.0 -0.0 2e-06 -6.252227 -15.421495 -0.671191 0.047708 -0.073356 6.138959 6.437969 -5.63402 -4.371351 -1.409727 0.886147 -0.925398 -0.0 1e-06 -1e-06 
0.0 0.0 0.0 0.0 -0.0 0.0 1.927682 100.268723 -3.815059 0.861571 2.030654 0.155566 -0.47315 0.002002 -3.267623 -0.665491 0.788875 -5.962784 -0.677538 -1.407024 12.932559 4.711092 0.918198 5.445753 -1.217429 -1.473671 -3.648631 1.759252 -2.845757 -8.960708 7.7e-05 -2.2e-05 6e-06 0.004082 -0.06914 0.021644 0.703679 -3.80289 -10.529371 -0.692192 3.670694 -10.523727 -19.160673 -6.002927 12.615406 -54.74147 -7.988653 18.73904 0.728085 -29.363138 -0.200361 -7.689519 -2.951763 7.908451 -5.882107 9.861286 0.702591 -10.936875 -0.360574 7.156207 1e-06 8.774828 1e-06 -15.954843 18.385366 6.074477 -1.844033 2.498504 -2.507277 -10.163603 4.678946 4.621109 -20.976027 -3e-06 2e-06 -21.226292 2.451697 -3.594001 1e-06 -6e-06 0.0 -1.362682 2.240798 -0.746323 -21.334919 0.584909 3.008323 -13.821217 -2e-06 0.0 -23.887177 -0.24908 -0.839484 -60.048996 2.692403 -1.350353 -0.294025 1.679688 0.833254 -14.218212 0.093214 1.300581 -34.212063 -0.287566 0.967171 -20.033218 0.964535 1.212844 1e-06 -0.0 0.0 -3.440389 0.788232 0.501655 -15.928189 -3.167311 2.999709 -6.338828 -2e-06 0.0 -18.123453 3.648183 -4.905672 -3e-06 1e-06 -2e-06 27.721199 12.885761 19.183228 47.107845 9.922437 16.567425 0.292025 22.165537 0.081919 10.648394 5.209898 -8.836398 2.243541 -5.255035 -3.180155 14.282887 -0.826594 6.952501 -2e-06 -12.690603 1e-06 16.388449 -17.948103 2.216373 1.665666 -1.955922 -2.878298 4.727798 -4.170586 4.993923 11.020525 4e-06 -1e-06 12.109051 -3.735715 -2.866782 -0.0 -0.0 0.0 1.291986 -1.928548 -1.498089 14.800125 0.567468 3.865609 14.242568 -1.341737 -6.660655 19.631962 0.143926 -0.648245 49.43623 -0.401434 -6.713614 0.353029 -1.511151 -0.03194 20.222786 3.684309 2.31663 18.78727 5e-06 -1e-06 10.751624 -0.479867 1.397907 -0.0 1e-06 -0.0 3.273806 0.305947 -0.580111 21.486809 11.830373 2.266134 8.162926 2e-06 -0.0 18.399076 -3.798984 -4.940574 4e-06 1e-06 -2e-06 3.679867 6.003549 -1.519725 0.026584 0.009144 3.705285 -4.823268 -1.1741 -2.145047 1.619142 -2.107976 -0.192793 -0.0 -0.0 2e-06 -6.283007 -16.201822 -0.03634 0.043644 -0.08512 5.428543 6.376493 -6.461641 -4.367934 -1.41934 0.868413 -0.924646 0.0 0.0 -1e-06 
0.0 0.0 0.0 0.0 -0.0 0.0 1.72261 100.288429 -3.792423 1.008405 4.134007 0.270555 -0.474501 -0.00337 -3.18328 -0.65007 0.870054 -5.912747 -0.672446 -1.324937 12.876369 5.299004 0.696462 6.013861 -1.417062 -2.312175 -3.656396 2.030271 -3.977153 -8.539463 7.7e-05 -2.2e-05 6e-06 0.001263 -0.069062 0.020764 0.690642 -3.804434 -10.534459 -0.684161 3.671714 -10.524408 -18.888889 -5.815697 12.578069 -54.900951 -8.527211 18.715746 0.618264 -30.245598 -0.254625 -7.476789 -2.734627 8.243112 -5.88211 9.861294 0.70259 -10.936881 -0.360578 7.156208 2e-06 8.774833 -1e-06 -15.890399 18.372892 6.039601 -1.844033 2.498505 -2.507281 -10.163608 4.678948 4.621107 -20.976044 -6e-06 2e-06 -21.226305 2.451697 -3.594002 1e-06 -5e-06 0.0 -1.362682 2.240799 -0.746325 -21.334932 0.584906 3.008321 -13.821226 -5e-06 -2e-06 -23.88719 -0.249083 -0.839484 -59.826653 2.721997 -1.414518 -0.294025 1.679689 0.833256 -14.218221 0.093213 1.300578 -34.212082 -0.287572 0.96717 -20.033232 0.964532 1.212845 0.0 1e-06 0.0 -3.440391 0.788234 0.501655 -15.928201 -3.167316 2.999708 -6.338831 -3e-06 -1e-06 -18.123461 3.648183 -4.905675 -4e-06 1e-06 -2e-06 27.509951 13.318151 19.21851 47.018936 10.71635 13.692592 0.485026 22.221222 0.088956 11.250801 5.25167 -11.711987 2.243545 -5.255041 -3.18016 14.282907 -0.826596 6.952507 -2e-06 -12.690616 3e-06 16.419304 -17.919996 2.234875 1.665668 -1.955923 -2.8783 4.727804 -4.170592 4.99393 11.020538 3e-06 -2e-06 12.109064 -3.735719 -2.866784 1e-06 -0.0 0.0 1.291987 -1.928552 -1.498091 14.800142 0.567467 3.865608 14.242588 -1.341736 -6.660665 19.63199 0.143927 -0.648247 49.386402 -0.415832 -6.744241 0.353029 -1.511152 -0.031941 20.222809 3.684312 2.31663 18.787294 4e-06 -3e-06 10.751638 -0.479869 1.397907 1e-06 0.0 -1e-06 3.27381 0.305947 -0.580111 21.486834 11.830386 2.266132 8.162937 2e-06 -1e-06 18.399103 -3.79899 -4.940581 5e-06 1e-06 -1e-06 3.618034 4.616963 -1.753381 0.010919 -0.032662 3.209699 -4.944638 -1.824682 -1.553018 1.626054 -2.130465 -0.140881 0.0 -0.0 2e-06 -6.345574 -17.205696 0.519083 0.044191 -0.103912 5.037741 6.348334 -7.552319 -4.559392 -1.425342 0.881851 -0.837712 0.0 0.0 -1e-06 
0.0 0.0 0.0 0.0 -0.0 0.0 1.472867 100.291573 -3.802109 1.150504 6.376607 0.361506 -0.44535 -0.01446 -3.068459 -0.621368 0.973746 -5.87152 -0.584636 -1.176376 12.851051 5.878107 0.396634 6.675939 -1.621828 -3.189256 -3.648361 2.29817 -5.145555 -8.08995 7.7e-05 -2.2e-05 6e-06 -0.000334 -0.07618 0.01804 0.684544 -3.81126 -10.551882 -0.680743 3.663226 -10.537431 -18.500978 -5.633631 12.544146 -55.200218 -9.115892 19.039835 0.58294 -31.095448 -0.320509 -7.381258 -2.535962 8.793511 -5.882109 9.861293 0.70259 -10.936878 -0.360576 7.156205 0.0 8.774833 -1e-06 -15.815573 18.361971 6.029695 -1.844035 2.498507 -2.507279 -10.163604 4.678947 4.621105 -20.976034 -6e-06 -0.0 -21.226299 2.451696 -3.594005 1e-06 -5e-06 -0.0 -1.362683 2.240801 -0.746323 -21.334929 0.584906 3.008322 -13.821221 -4e-06 -1e-06 -23.887186 -0.249084 -0.839484 -59.697582 2.738878 -1.469404 -0.294025 1.679689 0.833256 -14.218217 0.093213 1.300578 -34.21207 -0.287571 0.967169 -20.033226 0.964534 1.212844 -1e-06 1e-06 1e-06 -3.440391 0.788234 0.501655 -15.928196 -3.167314 2.999705 -6.33883 -2e-06 -1e-06 -18.123459 3.648181 -4.905677 -3e-06 0.0 0.0 27.224401 13.869916 19.161205 46.575039 11.891706 10.502331 0.609584 22.565023 0.072992 12.053555 5.486022 -15.287382 2.243543 -5.25504 -3.18016 14.282902 -0.826595 6.952507 -4e-06 -12.690618 0.0 16.471691 -17.911531 2.28856 1.665668 -1.955922 -2.8783 4.727804 -4.170592 4.993925 11.020536 3e-06 -1e-06 12.109062 -3.735719 -2.866789 2e-06 2e-06 -0.0 1.291986 -1.928551 -1.49809 14.800142 0.567469 3.865608 14.242586 -1.341735 -6.660661 19.631985 0.143928 -0.648245 49.406384 -0.467476 -6.746074 0.353029 -1.511153 -0.03194 20.222809 3.684315 2.316631 18.787289 6e-06 -0.0 10.751637 -0.479868 1.397907 2e-06 -1e-06 -0.0 3.273809 0.305948 -0.580113 21.486832 11.83039 2.266135 8.162937 3e-06 -2e-06 18.399097 -3.798986 -4.940581 3e-06 1e-06 -2e-06 3.589206 3.199879 -2.130435 -0.004055 -0.066245 2.957569 -5.06488 -2.511384 -1.040073 1.631142 -2.1323 -0.114652 0.0 0.0 2e-06 -6.381767 -18.240662 0.952637 0.044843 -0.128075 4.948273 6.312019 -8.722905 -4.887321 -1.427688 0.901104 -0.784448 0.0 1e-06 -1e-06 
